<?xml version="1.0" standalone="no"?>
<!DOCTYPE svg PUBLIC "-//W3C//DTD SVG 1.1//EN" "http://www.w3.org/Graphics/SVG/1.1/DTD/svg11.dtd" >
<!--
2013-9-30: Created.
-->
<svg>
<metadata>
Created by iconfont
</metadata>
<defs>

<font id="iconfont" horiz-adv-x="1024" >
  <font-face
    font-family="iconfont"
    font-weight="500"
    font-stretch="normal"
    units-per-em="1024"
    ascent="896"
    descent="-128"
  />
    <missing-glyph />
    
    <glyph glyph-name="pengyou" unicode="&#58908;" d="M50.45475555-41.82129778000001a33.51324445 33.51324445 0 0 0-33.46204444 33.47911111c0 85.01703111 26.86634667 165.73326222 77.70112 233.42762667a394.02154667 394.02154667 0 0 0 87.15946667 84.70869333 385.16280889 385.16280889 0 0 0 89.12896 47.15178667 250.23601778 250.23601778 0 0 0-73.46972445 75.33681778 245.31854222 245.31854222 0 0 0-37.57397333 130.88312889c0 136.31488 110.88896 247.18677333 247.20384 247.18677333 136.29781333 0 247.18677333-110.88782222 247.18677333-247.18677333 0-83.44007111-40.98389333-159.51416889-110.13461333-205.53500445a391.29656889 391.29656889 0 0 0 87.6544-46.56924444 389.10407111 389.10407111 0 0 0 87.1424-84.86229333 385.52348445 385.52348445 0 0 0 77.85472-233.42762667c0-18.45361778-15.00956445-33.47911111-33.46204445-33.47911111s-33.47911111 15.02549333-33.4791111 33.47911111c0 86.12977778-33.51324445 167.15548445-94.35477334 228.11648-59.09390222 59.38517333-137.30816 93.00195555-220.20096 94.64604444l-0.90794666-0.41073777c-2.63850667-0.53134222-5.14048-0.83968-7.55484445-0.83968-0.96028445 0-1.88529778 0.0512-2.81031111 0.13653333-84.53688889-0.01706667-164.89472-33.63271111-225.78744889-94.64604445-60.84152889-61.26933333-94.35477333-142.29390222-94.35477333-228.11648a33.53031111 33.53031111 0 0 0-33.47911112-33.47911111z m356.80711112 785.24984889c-99.39171555 0-180.24448-80.85390222-180.24448-180.24561778s80.85276445-180.24561778 180.24448-180.24561778S587.52568889 463.79235555 587.52568889 563.18407111s-80.86983111 180.24448-180.26268444 180.24448z m545.9968-712.48327111a33.51324445 33.51324445 0 0 0-33.47911112 33.46204445c0 148.05105778-112.79018667 268.50076445-251.43523555 268.50076444a33.53031111 33.53031111 0 1 0 0 67.07768889c75.83288889 0 137.53116445 66.25507555 137.53116445 147.67445333 0 81.43530667-61.71534222 147.69152-137.53116445 147.69152-18.45361778 0-33.46204445 15.00842667-33.46204445 33.47911111s15.00842667 33.47911111 33.46204445 33.47911111c112.75605333 0 204.48938667-96.29013333 204.48938667-214.63267555 0-38.01998222-9.59488-75.30268445-27.72195556-107.80444445a212.18190222 212.18190222 0 0 0-55.73632-65.17646222c54.33116445-23.50648889 101.34528-62.40028445 136.38428444-112.94492444 40.04067555-57.82528 61.11459555-126.05098667 60.9951289-197.36120889a33.53031111 33.53031111 0 0 0-33.49617778-33.44497778z"  horiz-adv-x="1024" />

    
    <glyph glyph-name="zhanghao" unicode="&#58926;" d="M955.969 2.207c-24.235 63.045-58.974 119.704-103.245 168.418-44.508 48.969-96.425 87.457-154.309 114.394a459.378 459.378 0 0 1-33.349 13.957c24.88 14.086 48.002 31.636 68.772 52.401 60.258 60.258 93.439 140.373 93.439 225.589 0 85.215-33.181 165.336-93.439 225.588C673.575 862.813 593.464 896 508.244 896c-85.215 0-165.332-33.187-225.589-93.446-60.258-60.258-93.446-140.373-93.446-225.588 0-85.216 33.188-165.331 93.446-225.589 20.764-20.765 43.892-38.315 68.772-52.401a461.947 461.947 0 0 1-33.355-13.957c-57.883-26.937-109.8-65.425-154.304-114.394-44.275-48.714-80.86-104.701-103.243-168.418C41.84-50.959 43.798-103.477 42.847-128h75.045c-2.474 175.151 164.074 380.204 390.358 380.204 226.278 0 397.205-212.555 397.859-380.204h75.045c-1.334 47.406-0.167 65.139-25.185 130.207zM508.244 333.004c-134.524 0-243.968 109.443-243.968 243.962 0 134.524 109.444 243.968 243.968 243.968S752.212 711.49 752.212 576.966c0-134.519-109.445-243.962-243.968-243.962z"  horiz-adv-x="1024" />

    
    <glyph glyph-name="wangyiyunyinle" unicode="&#58890;" d="M957.21244445 286.94755554999995c0 179.76888889-140.40177778 327.22488889-317.21244445 338.71644445l-21.04888889 86.47111111c-3.64088889 14.79111111-1.25155555 30.03733333 6.71288889 43.008 7.85066667 12.97066667 20.36622222 22.07288889 35.15733333 25.71377778 30.49244445 7.39555555 61.32622222-11.37777778 68.72177778-41.87022222 6.144-25.25866667 31.51644445-40.73244445 56.88888889-34.58844445 25.25866667 6.144 40.73244445 31.63022222 34.58844445 56.88888889-19.68355555 80.896-101.48977778 130.73066667-182.38577778 111.04711111-39.25333333-9.55733333-72.36266667-33.792-93.29777778-68.26666667s-27.30666667-74.97955555-17.74933334-114.23288888l17.74933334-72.81777778C425.41511111 585.04533333 336.78222222 475.47733333 336.55466667 345.65688889c-0.11377778-14.90488889 1.70666667-29.92355555 5.23377778-44.48711111 11.60533333-47.55911111 40.96-87.83644445 82.83022222-113.20888889 29.12711111-17.74933333 61.78133333-26.85155555 95.00444444-26.85155556 14.56355555 0 29.12711111 1.70666667 43.69066667 5.23377778 47.55911111 11.60533333 87.83644445 40.96 113.20888889 82.83022222s33.10933333 91.02222222 21.504 138.58133334l-34.13333334 140.17422222c113.32266667-21.61777778 199.33866667-121.40088889 199.33866667-240.86755556 0-43.69066667-11.60533333-86.58488889-33.56444445-123.904 0-0.11377778-0.11377778-0.11377778-0.22755555-0.22755555-48.46933333-82.71644445-126.29333333-141.53955555-219.02222222-165.66044445-92.72888889-24.23466667-189.44-10.80888889-272.04266667 37.77422222-82.71644445 48.46933333-141.53955555 126.29333333-165.66044444 219.02222223-24.12088889 92.72888889-10.80888889 189.44 37.77422222 272.04266667 47.78666667 81.46488889 124.35911111 139.94666667 215.49511111 164.75022222 25.03111111 6.82666667 39.936 32.65422222 33.10933333 57.79911111-6.82666667 25.03111111-32.65422222 39.936-57.79911111 33.10933333-115.02933333-31.28888889-211.62666667-105.13066667-272.04266667-207.98577778-126.63466667-215.60888889-54.15822222-493.79555555 161.3368889-620.20266666 71.79377778-42.09777778 150.64177778-62.23644445 228.46577777-62.23644445 155.53422222 0 307.2 80.09955555 391.50933333 223.68711111 30.49244445 51.99644445 46.64888889 111.38844445 46.6488889 171.91822222zM430.64888889 345.31555555c0 85.78844445 58.02666667 158.03733333 136.87466666 179.99644445L606.43555555 365.45422222c5.57511111-23.09688889 1.93422222-47.104-10.46755555-67.47022222-12.40177778-20.36622222-31.97155555-34.58844445-55.06844445-40.27733333-23.21066667-5.57511111-47.104-1.93422222-67.47022222 10.46755555-20.36622222 12.40177778-34.58844445 31.97155555-40.27733333 55.06844445-1.70666667 7.168-2.61688889 14.44977778-2.50311111 21.61777778"  horiz-adv-x="1024" />

    
    <glyph glyph-name="yinyue" unicode="&#58905;" d="M179.2-128C81.454545-128 0-48.872727000000054 0 51.200000000000045s79.127273 179.2 179.2 179.2c39.563636 0 76.8-13.963636 109.381818-37.236364l9.309091-6.981818V761.018182c0 34.909091 27.927273 62.836364 60.509091 62.836363l598.109091 69.818182h4.654545C993.745455 896 1024 868.072727 1024 833.163636v-672.581818c0-48.872727-18.618182-93.090909-53.527273-125.672727-32.581818-32.581818-79.127273-51.2-125.672727-51.2-97.745455 0-179.2 79.127273-179.2 179.2 0 97.745455 79.127273 179.2 179.2 179.2 39.563636 0 79.127273-13.963636 109.381818-37.236364l9.309091-6.981818V609.745455l-605.090909-65.163637v-493.381818c-2.327273-100.072727-81.454545-179.2-179.2-179.2z m0 295.563636c-65.163636 0-118.690909-53.527273-118.690909-118.690909s53.527273-118.690909 118.690909-118.690909 118.690909 53.527273 118.690909 118.690909c-2.327273 67.490909-53.527273 118.690909-118.690909 118.690909z m665.6 111.709091c-65.163636 0-118.690909-53.527273-118.690909-118.690909s53.527273-118.690909 118.690909-118.690909 118.690909 53.527273 118.690909 118.690909-53.527273 118.690909-118.690909 118.690909z m-488.727273 325.818182l605.090909 65.163636V835.490909l-598.109091-69.818182h-6.981818v-160.581818z"  horiz-adv-x="1024" />

    
    <glyph glyph-name="shipin" unicode="&#58909;" d="M431.32761125 186.64440415c-8.46021215 0-16.97018311 1.9454483-24.90732088 5.89217185-19.0831123 9.49179733-30.93663289 28.62952297-30.93663289 49.94207289V525.52013748c0 21.31376355 11.85473422 40.45027555 30.93784652 49.94328652 18.48600652 9.1956717 40.09832297 7.52086282 56.88403437-4.2804717L689.48119703 429.45407052l1.27552475-0.96483555c14.06475378-10.63867733 22.1305363-26.85398282 22.1305363-44.48923497 0-17.63403852-8.06699615-33.85055763-22.13174993-44.4868077l-1.27552474-0.96483555-226.17565866-141.73130905c-9.57917867-6.73564445-20.73243497-10.17264355-31.9767135-10.17264355z m16.973824 308.0070637v-221.3029357L624.88211911 384l-176.58068386 110.65146785zM865.8944-54.72953837H158.1056c-79.233024 0-143.69374815 64.46072415-143.69374815 143.69374815V679.03579022c0 79.233024 64.46072415 143.69374815 143.69374815 143.69374815h707.7888c79.233024 0 143.69374815-64.46072415 143.69374815-143.69374815v-590.07036681c0-79.23423763-64.46072415-143.69496178-143.69374815-143.69496178zM158.1056 749.91176059c-39.08130133 0-70.87597037-31.79466903-70.87597037-70.87597037v-590.07036681c0-39.08130133 31.79466903-70.87597037 70.87597037-70.87597038h707.7888c39.08130133 0 70.87597037 31.79466903 70.87597037 70.87597038V679.03579022c0 39.08130133-31.79466903 70.87597037-70.87597037 70.87597037H158.1056z"  horiz-adv-x="1024" />

    
    <glyph glyph-name="mima" unicode="&#59000;" d="M832.559984 543.270242h-28.443654V606.870254a289.101303 289.101303 0 1 1-578.259493 0V543.270242h-28.443654A141.421849 141.421849 0 0 1 56.901531 402.360379v-389.279853A141.421849 141.421849 0 0 1 197.925169-128h627.580789a141.421849 141.421849 0 0 1 141.023638 141.023638V402.360379A131.409683 131.409683 0 0 1 832.559984 543.270242zM296.624649 606.756479a218.617927 218.617927 0 0 0 437.178968 0V543.270242H296.624649zM896.046221 19.907003a65.135968 65.135968 0 0 0-63.486237-70.540263H197.925169a70.654037 70.654037 0 0 0-70.540263 70.540263V402.360379a70.654037 70.654037 0 0 0 70.540263 70.540263h627.580789a70.654037 70.654037 0 0 0 70.540263-70.540263zM515.242577 388.024777a118.837588 118.837588 0 0 1-119.86156-119.861559 114.34349 114.34349 0 0 1 84.591428-112.807533v-105.753507a35.270131 35.270131 0 1 1 70.540263 0v105.924168a120.714869 120.714869 0 0 1 84.591428 112.807534 118.837588 118.837588 0 0 1-119.861559 119.918446z m0-176.350657a48.18355 48.18355 0 0 0-49.378184 49.378184 50.288381 50.288381 0 0 0 49.378184 56.43221 48.18355 48.18355 0 0 0 49.378184-49.378184 54.498042 54.498042 0 0 0-49.378184-56.147773z"  horiz-adv-x="1024" />

    
    <glyph glyph-name="zhuyi" unicode="&#58886;" d="M512 896C373.76 896 245.76 844.8 148.48 747.52 56.32 650.24 0 522.24 0 389.12 0 102.39999999999998 225.28-128 506.88-128c286.72 0 517.12 225.28 517.12 506.88C1024 665.6 798.72 896 512 896z m0-957.44c-250.88 0-450.56 199.68-445.44 450.56 0 245.76 199.68 445.44 445.44 440.32 245.76 0 445.44-199.68 445.44-445.44 0-250.88-194.56-445.44-445.44-445.44zM460.8 471.04v-163.84c0-35.84 20.48-46.08 56.32-46.08 35.84 0 35.84 20.48 35.84 46.08 5.12 97.28 5.12 194.56 10.24 291.84 5.12 35.84 0 61.44-51.2 61.44S455.68 640 455.68 599.04L460.8 471.04z m117.76-337.92c-5.12-40.96-30.72-61.44-66.56-61.44-35.84 0-61.44 20.48-66.56 56.32-5.12 40.96 20.48 61.44 61.44 61.44 40.96 5.12 61.44-20.48 71.68-56.32z"  horiz-adv-x="1024" />

    
    <glyph glyph-name="right-left" unicode="&#58885;" d="M375.02369187 384.29976652l354.56796443-354.57281897c14.90337185-14.89123555 14.90337185-39.06188325 0-53.95433244-14.89123555-14.90337185-39.06188325-14.90337185-53.95433245 0l-381.550592 381.550592c-14.90337185 14.89123555-14.90337185 39.06188325 0 53.95433244l381.550592 381.54937837c7.44683141 7.45168592 17.21290903 11.17874252 26.9765594 11.17874254s19.529728-3.72705659 26.97655942-11.17874254c14.90337185-14.89123555 14.90337185-39.06188325 0-53.95433244l-354.56796445-354.57403259z"  horiz-adv-x="1024" />

    
    <glyph glyph-name="icon1" unicode="&#58902;" d="M658.10806201 383.68024902l-378.20582873 378.21100693c-15.89692997 15.88398459-15.89692997 41.66600879 0 57.55128793 15.88398459 15.89692997 41.66600879 15.89692997 57.55128794 0l406.98729813-406.98729813c15.89692997-15.88398459 15.89692997-41.66600879 1e-8-57.55128794l-406.98729814-406.98600359c-7.94328684-7.94846498-18.3604363-11.92399202-28.77499669-11.92399203s-20.83170986 3.97552703-28.77499671 11.92399203c-15.89692997 15.88398459-15.89692997 41.66600879 0 57.55128793l378.20582875 378.21230143z"  horiz-adv-x="1024" />

    
    <glyph glyph-name="lower-triangle" unicode="&#58889;" d="M233.583 533.769l499.661 0-250.22699999-298.81-249.43400001 298.81zM233.583 533.769z"  horiz-adv-x="1000" />

    
    <glyph glyph-name="naozhong" unicode="&#59204;" d="M157.8 796.2c-79.2-59.1-95.5-170.9-37.2-250.4L408.4 761c-59.6 78.5-171.6 94.4-250.6 35.2zM560 352.7c0 23.3-16.6 42.7-38.5 47.1V566.6h-18.1v-166.9c-22.4-4-39.4-23.5-39.4-47 0-26.4 21.4-47.9 47.9-47.9 14.6 0 27.5 6.5 36.3 16.8L676 284.2l7.8 26.7-124.4 36.4c0.3 1.8 0.6 3.6 0.6 5.4zM512.1 706.3c-195.4 0-353.7-158.3-353.6-353.6 0-95 37.6-181.1 98.4-244.6l-38.6-137.3c-2.9-10.4 2.9-22.6 12.7-27l13.3-6c9.8-4.4 22.7-0.5 28.6 8.5l64.1 99.3c51.7-29.5 111.4-46.5 175.2-46.5 63.6 0 123.3 17 175 46.5l64.1-99.3c5.9-9.2 18.8-12.9 28.6-8.5l13.3 6c10 4.4 15.6 16.6 12.7 27l-38.6 137.3c61 63.6 98.4 149.7 98.4 244.6 0 195.3-158.3 353.6-353.6 353.6z m0-631.7c-153.7 0-278.3 124.6-278.3 278.3S358.4 631 512.1 631s278.2-124.6 278.2-278.2c-0.1-153.7-124.7-278.2-278.2-278.2zM866.2 796.2c-79 59.1-191 43.3-250.6-35.2l287.8-215.2c58.4 79.6 42 191.3-37.2 250.4z"  horiz-adv-x="1024" />

    
    <glyph glyph-name="gouwuche" unicode="&#58957;" d="M1039.020124-4.678822c-57.27355 0-103.642475-46.492101-103.642475-103.6845 0-57.309778 46.367476-103.636679 103.642475-103.636679 57.390928 0 103.759854 46.326901 103.759854 103.636679C1142.779977-51.170923 1096.329901-4.678822 1039.020124-4.678822L1039.020124-4.678822zM520.462858-4.678822c-57.309778 0-103.71638-46.492101-103.71638-103.6845 0-57.309778 46.405153-103.636679 103.71638-103.636679 57.235873 0 103.680152 46.326901 103.680152 103.636679C624.14301-51.170923 577.69873-4.678822 520.462858-4.678822L520.462858-4.678822zM339.301185 673.643868 201.082719 812 41.469452 812c-58.118386 0-52.391466-103.797531 0-103.797531l125.132917 0 103.697542-103.641026 181.105157-540.007132L1142.935033 64.554311 1289.322186 673.643868 339.301185 673.643868 339.301185 673.643868zM339.301185 673.643868"  horiz-adv-x="1290" />

    
    <glyph glyph-name="arrow-up" unicode="&#58903;" d="M191.547 201.525l-58.261 56.285 392.021 393.996 392.021-393.996-58.261-56.285-333.761 331.786z"  horiz-adv-x="1024" />

    
    <glyph glyph-name="arrow-down" unicode="&#58883;" d="M832.4529999999999 566.4750000000001l58.26100000000002-56.28499999999998-392.0209999999999-393.9960000000001-392.0210000000002 393.99599999999987 58.26099999999999 56.28500000000001 333.76100000000014-331.78599999999994z"  horiz-adv-x="1024" />

    
    <glyph glyph-name="qq" unicode="&#58928;" d="M116.435 302.286c-33.54-78.964-38.985-154.297-12.059-168.37 18.572-9.696 47.686 12.382 74.936 52.909 10.791-44.157 37.493-84.137 75.633-116.21-40.004-14.768-66.135-38.886-66.135-66.232 0-44.954 70.709-81.302 157.978-81.302 78.716 0 143.907 29.538 155.94 68.371 3.232 0.049 15.663 0.049 18.796 0 12.083-38.784 77.324-68.371 155.989-68.371 87.267 0 157.978 36.398 157.978 81.302 0 27.297-26.105 51.464-66.135 66.232 38.089 32.123 64.889 72.053 75.631 116.21 27.251-40.527 56.29-62.605 74.887-52.909 26.95 14.073 21.631 89.456-12.032 168.37-26.355 62.058-62.11 107.754-89.457 117.848 0.398 3.929 0.596 7.958 0.596 11.935 0 23.968-6.661 46.146-18.049 64.196 0.199 1.393 0.199 2.834 0.199 4.227 0 11.038-2.636 21.381-7.114 30.332-6.909 161.309-111.93 289.402-281.866 289.402-170.036 0-275.106-128.093-281.943-289.402-4.525-9.001-7.135-19.343-7.135-30.332 0-1.393 0.099-2.835 0.15-4.227-11.288-18.05-17.951-40.178-17.951-64.196 0-3.978 0.15-7.955 0.498-11.935-27.151-10.094-63.028-55.841-89.333-117.848z"  horiz-adv-x="1024" />

    
    <glyph glyph-name="dunpai1" unicode="&#58948;" d="M512-64.16002l-9.515724 3.685949C196.871833 57.650257 161.529907 212.051813 161.529907 317.910792L161.529907 722.230328l27.282367-0.935302c212.432227-7.233752 302.889425 88.641853 303.741839 89.577155l19.472494 21.286816 19.444864-21.286816c0.715291-0.77055 86.441744-89.961918 281.052071-89.961918 0 0 0 0 0.027629 0 7.398504 0 14.96176 0.110517 22.63451 0.384763l27.282367 0.935302L862.468047 317.910792c0-105.85898-35.340903-260.259512-340.953346-378.384863L512-64.16002zM214.281341 668.159852 214.281341 317.910792c0-56.930617 0.027629-207.234855 297.718659-325.4697C809.718659 110.675938 809.718659 260.980175 809.718659 317.910792l0 350.249059c-164.852582 0.632403-259.709997 59.296501-297.718659 89.604784C473.963709 727.483982 379.105271 668.847513 214.281341 668.159852z"  horiz-adv-x="1024" />

    
    <glyph glyph-name="shoucang1" unicode="&#58896;" d="M512.306 798.21v-58.382c0.73 0 2.068-0.609 2.676-1.095 0.365-0.73 0.608-1.46 0.973-2.068l99.615-202.392c8.27-16.784 23.961-28.46 42.327-31.745l222.582-38.921c0.73-0.122 1.582-0.244 2.311-0.365 0.365 0 0.973-0.487 1.095-0.852 0.243-1.094 0.608-2.31 0.973-3.405 0.243-0.73 0.973-2.92-1.095-5.352L724.55 303.542c-14.474-13.623-21.042-33.691-17.393-53.152l40.503-217.96v-0.122c0.365-2.19-1.46-4.014-2.554-4.865-0.244-0.244-0.487-0.365-0.73-0.608-0.973 0.243-2.19 0.73-3.527 1.337L538.457 129.368c-8.271 4.136-17.15 6.203-26.15 6.203-8.88 0-17.758-2.067-25.908-6.081L282.426 28.294c-0.608-0.243-1.094-0.608-1.702-0.851-0.122 0-0.609-0.244-1.338-0.244-0.73 0-1.338 0.122-1.46 0.244-1.338 1.094-2.432 3.284-2.554 4.378v0.122l42.084 218.082c3.77 19.704-2.798 40.016-17.515 53.76L140.728 452.052c-1.46 1.703-2.19 4.987-2.068 6.933 0.608 1.338 1.216 1.946 1.46 2.189 0.121 0.122 0.365 0.243 1.094 0.365 1.095 0.122 2.19 0.243 3.163 0.486l222.582 40.503c18.244 3.284 33.813 15.082 41.962 31.624L508.414 736.3c1.338 2.554 3.406 3.406 3.77 3.406V798.21m0.122 0c-23.352 0-45.124-13.988-56.07-35.76L356.62 560.06l-222.583-40.503c-24.934-3.162-43.543-20.19-51.327-43.543-6.204-21.772 0-48.287 17.15-65.437l160.307-149.604-42.084-217.96c-4.622-23.354 6.203-48.288 24.934-62.275 10.46-7.906 23.475-11.798 36.368-11.798 10.095 0 20.069 2.432 28.948 7.176l203.972 101.196 202.392-101.196c9.366-4.622 20.19-7.784 29.556-7.784 13.988 0 26.515 4.622 35.76 12.406 18.73 13.987 29.555 37.34 24.933 62.274l-40.502 217.96 160.308 151.065c17.15 17.15 23.352 42.083 15.568 65.436-6.203 23.353-26.515 40.503-49.868 43.544L667.87 559.938 568.255 762.33c-9.244 21.772-32.597 35.88-55.95 35.88z"  horiz-adv-x="1024" />

    
    <glyph glyph-name="paixu" unicode="&#59004;" d="M657.1-69.4c-28.7-0.5-52.4 22.3-52.9 51v803c0 29.2 23.7 52.8 52.9 52.8s52.8-23.6 52.8-52.8v-801.2c-0.6-28.9-23.9-52.1-52.8-52.8zM902.4 487c-14.1-0.1-27.6 5.7-37.3 15.9L620.3 747.5c-20.4 20.4-20.4 53.5 0 73.9 20.4 20.4 53.6 20.4 74 0l244.9-244.6c20.4-19.5 21.2-51.8 1.7-72.2-0.6-0.6-1.1-1.2-1.7-1.7-9.8-9.8-22.9-15.5-36.8-15.9zM366.4-69.4c-28.7-0.5-52.4 22.3-52.9 51v803c0 29.2 23.7 52.8 52.9 52.8s52.9-23.6 52.9-52.8v-801.2c-0.7-28.9-24-52.1-52.9-52.8zM366.4-69.4c-14 0-27.4 5.7-37 15.9L84.5 191c-20.6 20.4-20.7 53.5-0.3 74s53.6 20.7 74.1 0.3l244.9-244.6c20.4-20.8 20.1-54.3-0.8-74.7a52.93 52.93 0 0 0-36.2-15.1l0.2-0.3z"  horiz-adv-x="1024" />

    
    <glyph glyph-name="up" unicode="&#58895;" d="M18.861 381.971c0-273.342 222.39-495.733 495.733-495.733s495.736 222.392 495.736 495.733c0 273.345-222.393 495.735-495.736 495.735-273.343 0-495.733-222.392-495.733-495.735zM948.363 381.971c0-239.185-194.585-433.767-433.768-433.767-239.185 0-433.767 194.58400001-433.767 433.767 0 239.185 194.584 433.769 433.76799999 433.769s433.768-194.584 433.76800001-433.76899999zM306.789 465.846c-12.105-12.102-12.105-31.709 0-43.811 12.103-12.103 31.708-12.103 43.811 0l133.012 133.011 0-420.941c0-17.125 13.857-30.983 30.982-30.98300001 17.096 0 30.985 13.858 30.985 30.98300001l0 420.93900001 133.011-133.01100001c12.103-12.103 31.709-12.103 43.812-1e-8 6.051 6.05 9.078 13.98 9.078 21.90600001 0 7.92699999-3.026 15.853-9.078 21.906l-185.9 185.899c-12.101 12.10500001-31.709 12.105-43.812 0l-185.9-185.899z"  horiz-adv-x="1024" />

    
    <glyph glyph-name="vip" unicode="&#58892;" d="M512 896c-281.6 0-512-230.4-512-512s230.4-512 512-512c281.6 0 512 230.4 512 512 0 281.6-230.4 512-512 512zM550.4 140.8h-64l-166.4 467.2h64l128-364.8c6.4-12.8 6.4-25.6 6.4-44.8v0c0 12.8 6.4 25.6 12.8 44.8l128 364.8h64l-172.8-467.2z"  horiz-adv-x="1024" />

    
    <glyph glyph-name="xingxing" unicode="&#58887;" d="M1080.271876 442.266558c-77.162277-88.185459-214.584618-234.426346-214.584617-234.426346s22.046365-160.203584 35.274184-269.70053c5.879031-55.850791-37.47882-80.101792-85.980823-58.055427-92.594732 43.357851-233.691467 110.966703-265.291257 126.399158-32.334668-14.697577-174.166282-81.57155-267.495893-124.9294-49.236881-21.311486-92.594732 2.204636-87.450581 58.055427 12.49294 109.496945 35.274184 268.965651 35.274184 268.965651s-138.892098 145.506008-216.789254 233.691467c-27.925395 32.334668-9.553425 77.897156 44.827608 85.980823 111.701582 19.841728 284.398106 51.441518 284.398107 51.441518s94.799369 163.1431 154.324553 263.08662c33.069547 60.994943 55.850791 53.646154 59.525185 52.176397 10.288304-2.939515 26.455638-15.432455 47.032245-52.176397 58.790306-99.943521 152.119917-263.08662 152.119918-263.08662s170.491888-31.59979 280.723712-51.441518c53.646154-8.083667 71.283246-54.381033 44.092729-85.980823z"  horiz-adv-x="1093" />

    
    <glyph glyph-name="dingyue" unicode="&#58893;" d="M132.740741 896h758.518518c29.922201 0 54.179894-24.257693 54.179894-54.179894v-915.33545c0-29.922201-24.257693-54.179894-54.179894-54.179894a54.179894 54.179894 0 0 0-33.84618 11.872169L545.84618 133.431534c-19.787852 15.830011-47.904508 15.830011-67.69236 0L166.586921-115.823069c-23.365079-18.692063-57.460487-14.903534-76.153905 8.461545A54.179894 54.179894 0 0 0 78.560847-73.515344V841.820106C78.560847 871.742307 102.81854 896 132.740741 896z m119.832381-524.190476h520.126984v48.761905h-520.126984v-48.761905z m0 173.375661h520.126984v48.761905h-520.126984v-48.761905z"  horiz-adv-x="1024" />

    
    <glyph glyph-name="lishi" unicode="&#58924;" d="M511.163 863.93c-264.364 0-478.677-214.314-478.677-478.684 0-264.364 214.314-478.677 478.677-478.677 264.37 0 478.684 214.314 478.684 478.677 0 264.37-214.314 478.684-478.684 478.684z m237.66-716.337a28.015 28.015 0 0 0-19.867-8.233 28.013 28.013 0 0 0-19.872 8.233L483.071 373.612V659.443c0 15.529 12.59 28.105 28.098 28.105 15.515 0 28.105-12.577 28.105-28.105v-262.562l209.549-209.549c10.975-10.963 10.975-28.769 0-39.74z"  horiz-adv-x="1024" />

    
    <glyph glyph-name="xinaixin-fuben" unicode="&#58901;" d="M1045.333 778.667C919.467 902.4 716.8 906.667 584.533 789.333 452.267 906.667 249.6 902.4 123.733 778.667c-128-128-130.133-337.067-2.133-467.2l4.267-4.267 384-384c40.533-40.533 106.666-42.667 149.333-2.133l2.133 2.133 384 384c128 128 130.134 337.067 4.267 465.067-2.133 4.266-2.133 4.266-4.267 6.4z"  horiz-adv-x="1169" />

    
    <glyph glyph-name="liwu" unicode="&#58916;" d="M746.439111 896c143.7696-89.770667 151.802311-136.647111 45.852445-271.5648 22.186667-15.655822 47.445333-8.419556 70.633244-7.759644 171.4176 4.846933 162.4064 4.642133 160.722489-192.1024-0.295822-31.744-14.017422-43.258311-44.919467-43.121778-130.730667 0.568889-261.438578 1.115022-392.123733-0.386845-37.364622-0.432356-48.924444 14.836622-47.581867 49.106489 1.683911 42.825956 0.750933 85.788444 0 128.659911-0.386844 20.525511 4.027733 48.128-28.694755 46.307556-31.652978-1.774933-23.483733-29.764267-25.782045-49.652622-0.364089-3.026489 0.045511-6.121244-0.136533-9.193245-8.624356-164.795733-8.624356-164.795733-172.873956-164.795733-80.918756 0-161.9968 3.026489-242.688-1.046756-54.818133-2.753422-73.090844 18.113422-66.810311 68.790045 2.2528 18.113422 2.275556 36.932267 0.022756 55.068444-10.285511 82.579911 22.459733 121.787733 110.068622 112.366934 32.859022-3.527111 66.423467-0.568889 104.561778-0.568889C119.341511 758.397156 130.901333 804.6592 279.4496 896h37.364622c78.620444-36.568178 150.254933-81.897244 198.200889-173.397333 41.415111 99.077689 117.236622 136.829156 194.082133 173.397333h37.341867zM455.964444 641.934222c-17.316978 73.3184-53.703111 126.384356-118.419911 156.945067-37.228089 17.567289-74.979556 11.514311-95.049955-27.807289-18.477511-36.135822-0.341333-65.1264 32.585955-83.694933 53.589333-30.264889 110.023111-51.746133 180.883911-45.442845z m104.539023-8.055466c74.729244 7.896178 133.370311 29.354667 185.844622 66.787555 25.281422 18.045156 50.767644 42.3936 31.516444 75.616711-22.277689 38.365867-60.848356 38.729956-96.847644 20.252445-63.010133-32.335644-96.620089-87.062756-120.513422-162.656711zM483.043556-108.043378c0-11.036444-9.693867-19.956622-21.640534-19.956622H57.105067c-11.946667 0-21.686044 8.920178-21.686045 19.956622V307.040711c0 11.013689 9.716622 19.956622 21.686045 19.956622h404.297955c11.946667 0 21.640533-8.942933 21.640534-19.956622v-415.084089zM975.268978-108.043378c0-11.036444-9.716622-19.956622-21.663289-19.956622H549.307733c-11.969422 0-21.663289 8.920178-21.663289 19.956622V307.040711c0 11.013689 9.693867 19.956622 21.663289 19.956622h404.297956c11.969422 0 21.663289-8.942933 21.663289-19.956622v-415.084089z"  horiz-adv-x="1024" />

    
    <glyph glyph-name="maikefeng-xue" unicode="&#58925;" d="M801.728 531.2c-17.673 0-32-14.327-32-32v-91.392c0-129.28-115.648-234.432-257.728-234.432s-257.728 105.216-257.728 234.432v94.976c0 17.673-14.327 32-32 32s-32-14.327-32-32v-94.976c0-157.888 133.248-286.208 300.672-296.448v-99.392h-133.312c-16.128 0-29.184-14.336-29.184-32.064 0-17.664 13.056-31.936 29.184-31.936h319.040c16.064 0 29.184 14.272 29.184 31.936 0 17.728-13.12 32.064-29.184 32.064h-121.728v101.376c156.992 19.776 278.784 143.488 278.784 294.464v91.392c0 17.728-14.272 32-32 32zM517.12 217.344c109.79 0.109 198.766 89.064 198.912 198.834l0 211.086c-0.182 109.77-89.137 198.703-198.898 198.848-109.763-0.146-198.689-89.094-198.798-198.838l-0-211.082c0.109-109.754 89.035-198.702 198.77-198.848zM602.176 344.128c-0.533-0.020-1.158-0.032-1.786-0.032-27.535 0-49.856 22.321-49.856 49.856 0 27.535 22.321 49.856 49.856 49.856 0.628 0 1.253-0.012 1.876-0.035 26.666-0.986 47.98-22.915 47.98-49.821 0-26.907-21.315-48.835-47.98-49.821zM382.336 627.264c0 74.368 60.48 134.848 134.784 134.848 74.458-0.073 134.803-60.395 134.912-134.838l0-28.49h-269.696v28.48z"  horiz-adv-x="1024" />

    
    <glyph glyph-name="lishijilu" unicode="&#58914;" d="M818.342 642.376C749.33 711.393 657.573 749.4 559.972 749.4c-97.6 0-189.363-38.008-258.382-107.023-62.98-62.974-100.123-144.885-106.145-232.887h-71.542l47.855-82.897 47.857-82.898 47.857 82.898 47.855 82.897h-69.21c13.018 161.748 148.805 289.388 313.857 289.388 173.616 0 314.862-141.25 314.862-314.87 0-173.628-141.246-314.886-314.862-314.886-87.51 0-168.81 35.038-228.919 98.66-9.582 10.14-25.569 10.596-35.711 1.013-10.14-9.58-10.595-25.57-1.015-35.711 33.798-35.772 73.684-63.923 118.55-83.671 46.454-20.447 95.945-30.815 147.095-30.815 97.6 0 189.358 38.01 258.37 107.028 69.01 69.017 107.017 160.78 107.017 258.382-0.002 97.598-38.007 189.355-107.019 258.368zM548.064 647.147c-13.952 0-25.261-11.31-25.261-25.262V375.16c0-8.603 4.307-16.19 10.874-20.751a25.33 25.33 0 0 1 3.416-4.267L690.34 196.895c4.932-4.932 11.398-7.4 17.864-7.4s12.93 2.468 17.864 7.4c9.866 9.866 9.866 25.86 0 35.725l-152.74 152.741V621.885c0 13.952-11.31 25.262-25.263 25.262z"  horiz-adv-x="1024" />

    
    <glyph glyph-name="huancun" unicode="&#58962;" d="M574.259867 197.510842l178.423485 175.165318 54.3028-53.371895L584.608429 101.007009l-10.317532-10.084806-232.726285 228.382062 54.302799 53.371895zM533.051799 896h82.012743v-724.554502h-82.012743V896zM82.012743 475.851479v-483.139768a40.556434 40.556434 0 0 1 40.851221-40.184072H1025.236863a40.773645 40.773645 0 0 1 40.866735 40.184072V475.851479H1148.116341v-483.139768A122.010634 122.010634 0 0 0 1025.236863-127.995656H122.863964A121.870998 121.870998 0 0 0 0-7.288289V475.851479h82.012743z"  horiz-adv-x="1148" />

    
    <glyph glyph-name="shoubing" unicode="&#58904;" d="M954.496 200.95299999999997l-85.84 320.361c-19.154 71.482-83.806 118.616-154.449 118.619l-0.462-0.001-176.746 0.03L537 640v33c0 24.813 20.187 45 45 45 13.808 0 25 11.193 25 25s-11.192 25-25 25c-52.383 0-95-42.617-95-95v-33l0.001-0.03L309 640c-70.32-0.368-134.794-48.293-153.873-119.496l-85.623-319.55c-22.871-85.355 27.783-173.088 113.137-195.959 13.868-3.716 27.806-5.492 41.511-5.492 70.647 0 135.293 47.142 154.448 118.629l10.133 37.848c6.063 20.788 25.292 36.02 48.012 36.02h150.988c22.72 0 41.949-15.232 48.012-36.021l9.655-37.848c19.153-71.481 83.806-118.629 154.447-118.629 13.71 0 27.638 1.774 41.511 5.492 85.356 22.871 136.009 110.605 113.138 195.959z m-59.285-96.411c-14.691-25.445-38.412-43.647-66.793-51.252-9.38-2.513-18.993-3.788-28.57-3.788-49.538 0-93.117 33.416-106.078 81.297l-9.576 37.538-0.21 0.823-0.238 0.816c-5.937 20.359-18.527 38.674-35.45 51.574-17.551 13.379-38.493 20.45-60.562 20.45H436.745c-22.069 0-43.012-7.071-60.563-20.449-16.923-12.899-29.513-31.215-35.45-51.574l-0.155-0.532-0.143-0.535-10.131-37.838c-12.869-48.027-56.52-81.57-106.151-81.57-9.577 0-19.19 1.275-28.571 3.788-28.381 7.605-52.102 25.806-66.793 51.252-14.691 25.446-18.594 55.089-10.989 83.47l85.623 319.55c6.402 23.894 20.182 44.494 39.849 59.574 19.035 14.595 42.42 22.712 65.864 22.863l404.6-0.068h0.469c49.635-0.001 93.287-33.54 106.154-81.56l85.84-320.361c7.607-28.379 3.704-58.022-10.987-83.468zM321 494c-60.751 0-110-49.249-110-110s49.249-110 110-110 110 49.249 110 110-49.249 110-110 110z m0-170c-33.084 0-60 26.916-60 60s26.916 60 60 60 60-26.916 60-60-26.916-60-60-60zM704 459m-35 0a35 35 0 1 1 70 0 35 35 0 1 1-70 0ZM704 309m-35 0a35 35 0 1 1 70 0 35 35 0 1 1-70 0ZM779 384m-35 0a35 35 0 1 1 70 0 35 35 0 1 1-70 0ZM629 384m-35 0a35 35 0 1 1 70 0 35 35 0 1 1-70 0Z"  horiz-adv-x="1024" />

    
    <glyph glyph-name="huo" unicode="&#58900;" d="M336-76.8c-60.8 128-28.8 201.6 19.2 268.8 51.2 76.8 64 150.4 64 150.4s41.6-51.2 25.6-134.4c70.4 80 83.2 208 73.6 256 160-112 230.4-358.4 137.6-537.6C1148.8 208 777.6 627.2 713.6 672c22.4-48 25.6-128-19.2-166.4-73.6 281.6-256 336-256 336 22.4-144-76.8-300.8-172.8-419.2-3.2 57.6-6.4 96-38.4 153.6-6.4-105.6-86.4-188.8-108.8-294.4-28.8-144 22.4-246.4 217.6-358.4z"  horiz-adv-x="1024" />

    
    <glyph glyph-name="gengduo" unicode="&#58934;" d="M170.666667 469.333333c-46.933333 0-85.333333-38.4-85.333333-85.333333 0-46.933333 38.4-85.333333 85.333333-85.333333s85.333333 38.4 85.333333 85.333333C256 430.933333 217.6 469.333333 170.666667 469.333333zM853.333333 469.333333c-46.933333 0-85.333333-38.4-85.333333-85.333333 0-46.933333 38.4-85.333333 85.333333-85.333333s85.333333 38.4 85.333333 85.333333C938.666667 430.933333 900.266667 469.333333 853.333333 469.333333zM512 469.333333c-46.933333 0-85.333333-38.4-85.333333-85.333333 0-46.933333 38.4-85.333333 85.333333-85.333333s85.333333 38.4 85.333333 85.333333C597.333333 430.933333 558.933333 469.333333 512 469.333333z"  horiz-adv-x="1024" />

    
    <glyph glyph-name="qipao" unicode="&#58907;" d="M847.669504 716.992159 209.550085 716.992159c-49.082882 0-98.17088-49.086975-98.17088-98.171903L111.379205 177.045667c0-49.085952 49.086975-97.695043 98.17088-97.695043l49.086975 0 0-196.342784 294.517757 196.342784L847.669504 79.350624c49.086975 0 97.695043 0 97.695043 97.695043L945.364547 618.820256C945.364547 667.905184 896.756479 716.992159 847.669504 716.992159zM868.135628 211.89129c0 0 0-14.326287 0-59.480696L543.97883 152.410594 325.089541 16.054019l1.023306 134.309962L187.037349 150.363981c0 0 0 0 0 5.417383L187.037349 643.379605 868.135628 643.379605 868.135628 211.89129z"  horiz-adv-x="1024" />

    
    <glyph glyph-name="tianmao1" unicode="&#58894;" d="M167.475-89.021h137.856c0 76.102-30.814 137.846-68.933 137.846-38.109-0.001-68.923-61.745-68.923-137.846z m551.408 0h137.85c0 76.102-30.813 137.846-68.927 137.846-38.11-0.001-68.923-61.745-68.923-137.846zM939.023 251.408c-37.623 6.957-80.151-26.686-117.724-92.633-37.425-65.566-83.731-109.328-187.955-109.328h-242.94c-104.275 0-150.529 43.762-188.025 109.328-37.505 65.967-80.429 99.615-117.652 92.633-26.268-4.975-47.353-31.238-55.198-66.936v-135.648c0-51.621 28.742-96.139 70.719-119.725 8.962 67.482 66.096 119.725 136.055 119.725 76.161 0.037 137.922-61.676 137.95-137.836v-0.01h68.922c0.019 38.061 30.89 68.912 68.961 68.893 38.038-0.016 68.876-30.852 68.89-68.893h68.929c0.033 76.123 61.729 137.816 137.851 137.846 70.006 0 127.093-52.242 136.065-119.725 41.971 23.586 70.713 68.104 70.713 119.725V183.23c-7.577 36.348-28.944 63.137-55.561 68.178zM856.732 875.938H167.475c-76.122-0.033-137.818-61.733-137.85-137.855v-432.79c13.235 8.699 27.436 15.379 42.947 18.338 31.7 6.201 113.439 5.719 188.987-126.746 24.614-43.367 48.318-73.965 128.889-73.965h242.964c80.505 0 104.225 30.598 128.899 73.965 75.533 132.4 157.276 132.947 188.911 126.746 15.657-3.035 30.061-9.855 43.362-18.678v433.13c-0.028 76.122-61.734 137.822-137.852 137.855zM684.421 669.159H581.026v-275.701c-0.014-38.071-30.889-68.913-68.957-68.894-38.041 0.016-68.875 30.852-68.894 68.894V669.159H339.792c-19.036 0-34.461 15.426-34.461 34.461 0 19.036 15.426 34.462 34.461 34.462h344.629c19.031 0.009 34.467-15.412 34.476-34.442 0.01-19.036-15.413-34.471-34.447-34.481h-0.029z"  horiz-adv-x="1024" />

    
    <glyph glyph-name="shoucang" unicode="&#58933;" d="M736.25 856.637c-88.104 0-169.783-44.344-224.05-117.273C458.527 812.298 376.259 856.637 288.154 856.637 129.459 856.637 0.512 715.443 0.512 542.157c0-103.27 46.09-176.205 83.43-234.547 107.94-169.79 379.833-380.411 391.496-389.166a58.808 58.808 0 0 1 36.757-12.836c12.835 0 25.671 4.085 36.756 12.836 11.674 8.755 282.977 219.965 391.5 389.166 37.346 58.347 83.436 131.276 83.436 234.547 0.005 173.286-128.937 314.48-287.636 314.48z m130.105-547.276c-99.763-140.027-310.973-299.894-321.48-307.477-9.917-7.588-21.59-11.673-32.675-11.673-11.669 0-22.754 3.502-32.671 11.673-10.506 7.578-217.63 169.196-321.485 313.308C124.79 367.703 71.695 433.05 71.695 525.23c0 155.203 86.35 264.305 228.132 264.305 78.766 0 164.537-75.264 212.373-140.61 48.43 65.346 133.611 140.61 212.377 140.61 142.362 0 234.553-109.102 234.553-264.305 0-92.175-58.937-163.942-92.775-215.87z"  horiz-adv-x="1024" />

    
    <glyph glyph-name="cd" unicode="&#58906;" d="M512 812C229.248 812 0 582.752 0 300s229.248-512 512-512 512 229.248 512 512S794.752 812 512 812zM512.992 174.112c-70.016 0-126.88 56.736-126.88 126.88 0 70.24 56.864 127.008 126.88 127.008C583.264 428 640 371.264 640 300.992 640 230.88 583.264 174.112 512.992 174.112z"  horiz-adv-x="1024" />

    
    <glyph glyph-name="wallet" unicode="&#58995;" d="M1016.32 17.92c0-12.8-2.56-28.16-7.68-38.4-5.12-12.8-12.8-23.040-20.48-33.28-7.68-10.24-20.48-15.36-30.72-20.48-12.8-5.12-25.6-7.68-38.4-7.68h-803.84c-12.8 0-28.16 2.56-40.96 7.68s-23.040 12.8-33.28 20.48c-10.24 10.24-17.92 20.48-23.040 33.28-5.12 12.8-7.68 25.6-7.68 38.4l-0 555.52c0 28.16 10.24 51.2 28.16 71.68 20.48 20.48 43.52 28.16 71.68 28.16h806.4c28.16 0 51.2-10.24 71.68-28.16 20.48-20.48 28.16-43.52 28.16-71.68v-151.040h-250.88c-28.16 0-51.2-10.24-71.68-28.16-20.48-20.48-28.16-43.52-28.16-71.68 0-20.48 5.12-35.84 12.8-51.2 5.12-12.8 15.36-23.040 28.16-33.28 12.8-10.24 33.28-15.36 58.88-15.36h250.88l0-204.8zM865.28 724.48h-501.76c40.96 20.48 76.8 40.96 112.64 58.88 30.72 15.36 61.44 33.28 92.16 48.64 30.72 17.92 53.76 30.72 71.68 38.4 25.6 12.8 48.64 20.48 69.12 20.48 20.48 0 38.4-5.12 51.2-10.24 15.36-7.68 30.72-17.92 40.96-33.28l64-122.88zM716.8 322.56c0 12.8 5.12 25.6 15.36 35.84s20.48 15.36 35.84 15.36c12.8 0 25.6-5.12 35.84-15.36 10.24-10.24 15.36-20.48 15.36-35.84 0-12.8-5.12-25.6-15.36-35.84-10.24-10.24-20.48-15.36-35.84-15.36-12.8 0-25.6 5.12-35.84 15.36-12.8 7.68-15.36 20.48-15.36 35.84v0zM716.8 322.56z"  horiz-adv-x="1024" />

    
    <glyph glyph-name="renminbi" unicode="&#58882;" d="M512 876.78C239.846 876.78 19.22 656.155 19.22 384S239.845-108.78 512-108.78 1004.78 111.845 1004.78 384 784.154 876.78 512 876.78z m205.79-441.979v-70.634H556.146v-98.253H717.79v-71.088H556.146v-141.269h-88.292V194.825H301.229v71.088h166.624v98.253H301.229V434.8H441.59L269.987 714.444h100.97l119.988-209.01c6.637-13.887 14.186-31.546 22.64-52.975h1.811c6.035 17.206 13.88 35.615 23.545 55.241l120.44 206.744h94.633l-173.87-279.643H717.79z"  horiz-adv-x="1024" />

    
    <glyph glyph-name="xinhao" unicode="&#58947;" d="M128.17408 128.10752a128 128 0 1 1 127.86176-128.06656 128 128 0 0 1-127.86176 128.06656zM128.03072 896a128 128 0 0 1 0-256 640.66048 640.66048 0 0 0 639.92832-639.95904 128 128 0 0 1 256 0C1023.96928 494.08 622.08 896 128.03072 896z m0-384a128 128 0 0 1 0-256A256.26112 256.26112 0 0 0 384 0.04096a128 128 0 0 1 256 0 512.57856 512.57856 0 0 1-511.96928 511.99488z"  horiz-adv-x="1024" />

    
    <glyph glyph-name="gouwudai" unicode="&#58919;" d="M1024-14.2c0-62.8-53.9-113.8-120.5-113.8h-783C53.9-128 0-77.1 0-14.2l90.4 796.4C90.4 845.1 144.3 896 210.8 896h602.4c66.5 0 120.5-50.9 120.5-113.8l90.3-796.4zM763.6 642.2c1.7-0.2 3.4-0.2 5.1-0.2 28.3 0 51.2 22.7 51.2 50.8 0 28.1-22.9 50.8-51.2 50.8-28.3 0-51.2-22.7-51.2-50.8 0-9.4 2.6-18.1 7-25.6-5.7-46.7-27-90.5-60.9-124.1-40.1-39.7-94.4-62-151.1-61.9-56.7-0.1-111 22.2-151.1 61.9-33.9 33.6-55.2 77.4-60.9 124.1 4.5 7.5 7 16.3 7 25.6 0 28.1-22.9 50.8-51.2 50.8-28.3 0-51.2-22.7-51.2-50.8 0-28.1 22.9-50.8 51.2-50.8 1.7 0 3.4 0.1 5.1 0.2 23.6-116 127-203.4 251.1-203.4S740 526.2 763.6 642.2z"  horiz-adv-x="1024" />

    
    <glyph glyph-name="shandian" unicode="&#59094;" d="M417.792-128a45.738667 45.738667 0 0 0-34.4064 15.701333 47.3088 47.3088 0 0 0-11.332267 36.590934l44.032 380.928H285.013333a45.738667 45.738667 0 0 0-35.498666 16.930133 47.377067 47.377067 0 0 0-9.762134 38.5024L331.776 857.838933A46.216533 46.216533 0 0 0 377.0368 896h345.2928c16.725333 0 32.085333-9.216 40.277333-24.098133a47.5136 47.5136 0 0 0-1.160533-47.445334L598.016 557.056h141.038933c16.247467 0 31.402667-8.738133 39.594667-23.005867a47.5136 47.5136 0 0 0 0.682667-46.421333L458.069333-103.8336a45.943467 45.943467 0 0 0-40.277333-24.1664z"  horiz-adv-x="1024" />

    
    <glyph glyph-name="shujia" unicode="&#58884;" d="M268.54902 707.7647059999999H62.745098C27.607843 707.7647059999999 0 680.1568629999999 0 645.0196080000001v-710.27451c0-35.137255 27.607843-62.745098 62.745098-62.745098h208.313726c35.137255 0 62.745098 27.607843 62.745098 62.745098V645.0196080000001c-2.509804 35.137255-30.117647 62.745098-65.254902 62.745098zM1034.039216 652.54902h-208.313726c-32.627451 0-60.235294-27.607843-60.235294-60.235295v-657.568627c0-32.627451 27.607843-60.235294 60.235294-60.235294h208.313726c32.627451 0 60.235294 27.607843 60.235294 60.235294V589.8039220000001c0 35.137255-27.607843 62.745098-60.235294 62.745098zM647.529412 896h-200.784314c-35.137255 0-65.254902-30.117647-65.254902-65.254902v-893.490196c0-35.137255 30.117647-65.254902 65.254902-65.254902h200.784314c35.137255 0 65.254902 30.117647 65.254902 65.254902V830.745098c0 35.137255-30.117647 65.254902-65.254902 65.254902z m-65.254902-833.254902h-70.27451c-20.078431 0-37.647059 17.568627-37.647059 37.647059s17.568627 37.647059 37.647059 37.647059h70.27451c20.078431 0 37.647059-17.568627 37.647059-37.647059 0-22.588235-17.568627-37.647059-37.647059-37.647059z"  horiz-adv-x="1094" />

    
    <glyph glyph-name="11" unicode="&#58881;" d="M673.97632 896c-75.4176-34.80576-265.86624-10.35776-311.78752-56.27904C296.90368 774.43584 303.1552 658.96448 293.87264 570.7776c-104.49408 15.45216 12.36992-161.31072 43.38688-190.464 37.62176-37.71392 71.05024-60.68736 65.8176-119.58272-10.87488-122.368-227.75296-118.44608-299.47904-192.86528-132.54144-137.6768 276.992-191.95392 383.16032-195.7632 75.50464-2.70336 533.42208 49.67936 449.54112 174.82752-78.68416 117.39136-321.91488 109.0816-324.23936 206.9504-1.44384 59.50464 39.74144 92.95872 75.89376 134.0928 32.47104 33.82272 142.62784 201.66656 44.63616 188.68736C757.00736 714.89536 685.36832 768.62464 673.97632 896z"  horiz-adv-x="1024" />

    
    <glyph glyph-name="jiangzhang" unicode="&#58952;" d="M435.5 481.9a86.1 86.1 0 1 1 172.2 0 86.1 86.1 0 1 1-172.2 0zM521.6 813.3c-183 0-331.3-148.3-331.3-331.3s148.3-331.3 331.3-331.3S852.9 299 852.9 482c0 182.9-148.3 331.3-331.3 331.3z m0-488.3c-86.5 0-157 70.4-157 157s70.4 157 157 157 157-70.4 157-157-70.5-157-157-157z m-301-55L107.8 157.2c-9-9-12.5-22.1-9.1-34.3 3.3-12.3 13-21.8 25.2-25l96.3-25.2 25.2-96.3c3.2-12.3 12.7-21.9 25-25.2 3.1-0.8 6.2-1.2 9.3-1.2 9.3 0 18.3 3.6 25.1 10.4L463 118.6C363 134.5 276.6 190.7 220.6 270z m703-112.8L817.7 263.1C759.7 184.8 671.3 130.3 570 117l156.7-156.7c6.7-6.7 15.8-10.4 25.1-10.4 3.1 0 6.2 0.4 9.3 1.2 12.3 3.3 21.8 13 25 25.2l25.2 96.3 96.3 25.2c12.3 3.2 21.9 12.7 25.2 25 3.2 12.3-0.3 25.4-9.2 34.4z"  horiz-adv-x="1024" />

    
    <glyph glyph-name="shuanggou-" unicode="&#58898;" d="M339.84 128.2a39.85 39.85 0 0 0-27.58 11.07L100 342.52a39.86 39.86 0 0 0 55.14 57.57l181.23-173.53L665 626a39.86 39.86 0 0 0 61.56-50.65l-356-432.59a39.84 39.84 0 0 0-30.78-14.52z m0 0M895.3 600.83L538.29 167.68M538.27 128.25a39.44 39.44 0 0 0-30.41 64.51l357 433.15a39.43 39.43 0 0 0 60.85-50.16l-357-433.15a39.35 39.35 0 0 0-30.44-14.35z"  horiz-adv-x="1024" />

    
    <glyph glyph-name="sixin1" unicode="&#58930;" d="M942.93504 75.96032c0-66.92864-54.25664-121.18528-121.18528-121.18528H209.08032c-66.92864 0-121.18528 54.25664-121.18528 121.18528V688.62464c0 66.92864 54.25664 121.18528 121.18528 121.18528h612.66944c66.92864 0 121.18528-54.25664 121.18528-121.18528v-612.66432z m-634.2656 192.7168c12.73856-16.61952-50.10944-121.05216-50.10944-121.05216s131.03104 52.72064 151.37792 44.17536c32.98816-13.85472 69.9136-21.61152 108.89216-21.61152 139.97056 0 253.44 100.01408 253.44 223.3856s-113.46944 223.3856-253.44 223.3856-253.44-100.01408-253.44-223.3856c-0.00512-46.26432 15.95392-89.2416 43.27936-124.89728z"  horiz-adv-x="1024" />

    
    <glyph glyph-name="sixin" unicode="&#58922;" d="M511.488-126.464C229.376-126.464 0 102.912 0 384.512 0 665.6 229.376 894.976 511.488 894.976c282.112 0 511.488-228.864 511.488-510.464s-229.376-510.976-511.488-510.976z m0 979.968C252.416 853.504 41.472 643.072 41.472 384.512c0-258.56 210.944-469.504 470.016-469.504 259.072 0 470.016 210.432 470.016 469.504 0 258.56-210.432 468.992-470.016 468.992z m0 0M295.424 133.12v110.08c0 3.584-1.536 7.168-4.608 9.216-59.392 43.52-93.184 103.424-93.184 166.4 0 129.024 140.8 233.984 313.856 233.984s313.856-104.96 313.856-233.984c0-129.024-140.8-233.984-313.856-233.984-32.768 0-65.536 3.584-96.256 11.264-3.584 1.024-6.656 0-9.728-2.048l-91.648-69.632c-7.68-6.144-18.432-1.024-18.432 8.704z m216.064 478.208c-150.528 0-272.896-86.528-272.896-193.024 0-53.76 32.256-105.472 88.576-141.824l4.096-2.56c3.072-2.048 5.12-5.632 5.12-9.728v-48.128c0-9.728 10.752-14.848 18.432-9.216l41.472 31.744c3.072 2.048 6.656 3.072 10.24 2.048l4.608-1.024c32.256-9.216 66.048-13.824 100.352-13.824 150.528 0 272.896 86.528 272.896 193.024 0 105.984-122.368 192.512-272.896 192.512z m0 0M365.568 406.528c0-15.872 13.312-29.184 29.184-29.184s29.184 12.8 29.184 29.184c0 15.872-13.312 29.184-29.184 29.184s-29.184-12.8-29.184-29.184z m0 0M482.304 406.528c0-10.24 5.632-19.968 14.336-25.088 9.216-5.12 19.968-5.12 29.184 0 9.216 5.12 14.848 14.848 14.848 25.088 0 15.872-13.312 29.184-29.184 29.184s-29.184-12.8-29.184-29.184z m0 0M604.16 406.528c0-15.872 13.312-29.184 29.184-29.184s29.184 12.8 29.184 29.184c0 15.872-13.312 29.184-29.184 29.184-16.384 0-29.184-12.8-29.184-29.184z m0 0"  horiz-adv-x="1024" />

    
    <glyph glyph-name="xiaoxishezhi" unicode="&#59053;" d="M516.608 74.752c3.072 21.504 16.384 38.912 35.84 46.08 3.584 1.536 7.68 4.608 11.264 8.704 2.048 2.048 2.048 3.072 2.048 4.096 0 1.024 0 1.536-1.024 2.56-3.584 4.096-7.68 6.656-11.776 8.704-9.216 3.584-20.992 10.752-29.184 26.624-5.12 9.728-7.68 19.968-7.68 30.72 0 7.68 1.024 15.872 3.072 24.576 2.048 7.68 4.608 14.848 7.68 22.016s7.168 14.336 11.264 20.48c6.144 9.216 13.312 15.872 21.504 20.992 8.704 5.12 18.432 8.192 27.648 8.192 2.048 0 4.608 0 6.656-0.512 5.12-0.512 10.24-2.048 15.872-3.584l1.024-0.512 1.024-0.512c2.56-1.024 4.608-1.536 7.168-1.536h3.072c1.024 0 2.56 0.512 4.608 2.048l1.536 7.68c0.512 3.584 0 6.144 0 7.68 0 2.048-0.512 4.096-0.512 5.632-0.512 2.56-1.536 5.632-2.048 8.192-2.048 10.752-0.512 22.016 3.584 31.744 5.12 11.776 13.824 21.504 25.088 29.184 7.68 5.12 15.872 9.728 25.088 12.8 8.192 3.072 16.384 5.632 24.064 7.168 8.704 1.536 15.36 2.56 22.016 2.56 16.384 0 30.72-6.656 40.96-17.92 5.632-6.144 9.728-13.312 12.8-20.992 1.024-2.56 3.072-4.608 5.632-7.168 0.512-0.512 1.024-1.024 3.584-1.024 2.56 0 4.096 0.512 5.632 1.024V475.136c0 152.576-101.888 281.6-239.616 323.584-5.12 49.152-46.592 88.576-98.304 88.576-51.712-0.512-93.696-38.4-98.816-89.088C218.624 756.736 117.76 626.176 117.76 475.136v-305.152C47.616 134.144 1.024 109.568 1.024 26.112h522.24c-2.048 6.144-4.096 12.288-5.12 18.432-2.56 11.264-3.072 20.992-1.536 30.208zM264.192-35.328c48.128-52.736 115.712-86.016 192-86.016 61.44 0 118.272 21.504 162.304 57.856 0 8.704 2.56 17.92 7.68 28.672H264.192zM633.344-38.4c0.512 1.024 0.512 2.048 1.024 3.072h-9.216c-4.608-10.24-7.168-19.456-7.68-28.672 3.072 2.56 6.656 5.632 9.728 8.192 1.536 5.632 3.584 11.264 6.144 17.408zM1015.296 80.384c-1.536 1.536-3.584 2.56-6.144 4.096-10.24 3.584-17.92 9.728-24.064 18.432-6.144 8.704-9.216 18.432-9.216 29.696 0 11.776 3.584 22.016 11.264 31.232 7.168 9.216 16.384 15.872 26.624 19.456 2.56 1.024 5.12 3.072 7.68 6.144s3.584 7.68 2.56 13.312c-1.536 9.728-4.096 19.456-7.68 28.672-4.096 9.728-8.192 16.384-13.312 21.504-2.56 2.56-6.144 4.096-9.728 4.608-4.096 0.512-7.168-0.512-9.728-2.048-10.24-4.608-20.992-6.656-32.768-5.632-11.776 1.024-21.504 5.12-29.696 13.312-8.192 8.192-12.8 17.408-14.336 28.16-1.536 10.752-0.512 20.992 4.096 30.72 0.512 1.536 1.536 3.584 2.048 6.656 0.512 3.072 0 6.144-1.536 8.704-2.56 4.096-6.144 8.192-10.752 11.776-4.608 3.584-9.216 6.656-14.848 9.216-5.12 2.56-10.752 4.096-16.384 5.632-5.632 1.536-10.752 2.048-15.36 2.048-3.072 0-6.144-1.536-8.704-4.096-3.072-3.072-5.12-5.632-6.144-8.192-3.584-10.24-10.24-18.432-18.944-24.576-9.216-6.656-19.456-9.728-31.232-9.728-11.264 0-20.992 3.584-29.696 10.24-8.192 6.656-14.336 14.848-17.92 24.064-1.024 3.072-2.56 6.144-5.12 8.704-2.56 3.072-6.144 4.096-10.24 4.096-3.584 0-7.68-0.512-13.312-1.536-5.632-1.024-11.776-3.072-17.408-5.12-6.144-2.56-11.776-5.12-16.896-8.704s-8.704-7.68-10.752-12.288c-1.024-2.048-1.024-4.096-0.512-7.168 0.512-2.56 1.024-5.12 1.536-7.168 0.512-2.048 0.512-5.12 1.024-10.24 0.512-4.608 0.512-9.728 0-15.36s-1.536-11.264-3.584-17.408c-2.048-5.632-4.608-10.752-8.704-14.848-8.192-8.192-17.92-12.8-28.672-14.336-10.752-1.536-21.504 0-31.232 3.584-3.072 1.024-5.632 1.536-8.192 2.048-2.56 0.512-5.12-0.512-7.68-2.048-3.584-2.048-6.656-5.12-9.216-9.216-3.072-4.096-5.12-8.704-7.68-13.824-2.048-5.12-4.096-10.24-5.12-15.36-1.536-5.12-2.048-10.24-2.048-14.336 0-4.096 1.024-8.192 3.072-11.776 2.048-4.096 4.608-6.144 7.68-7.168 10.24-4.096 18.944-10.24 27.136-18.944 8.192-8.704 11.776-18.944 11.776-30.72 0-11.264-4.096-21.504-11.776-30.72-8.192-9.216-16.896-15.872-27.136-19.968-5.632-2.048-9.216-6.656-10.24-13.824-0.512-4.096-0.512-9.216 1.024-15.36 1.536-6.144 3.072-12.288 5.632-17.92 2.56-5.632 5.12-11.264 8.704-15.872 3.072-4.608 6.656-8.192 10.24-9.216 4.608-2.048 9.216-2.56 13.824-1.024 7.168 2.56 14.336 3.584 21.504 4.096 6.144 0.512 12.288 0 18.944-1.536 6.656-1.536 12.288-4.608 16.896-9.728 7.68-8.192 11.776-17.408 12.8-27.136 1.024-9.728-0.512-18.432-4.096-26.112-2.56-5.632-4.096-10.24-3.584-13.312 0-3.072 1.024-6.144 2.56-8.192 2.56-3.584 5.632-6.656 10.752-10.24 4.608-3.584 9.728-6.144 15.872-8.704 5.632-2.56 11.776-4.608 17.408-6.144 5.632-1.536 11.264-2.56 15.872-2.56 4.096 0 7.68 1.024 11.264 2.56 3.584 2.048 5.632 4.608 7.68 8.704 3.584 10.24 10.24 18.944 19.456 26.112 9.216 7.68 19.456 11.264 30.72 11.264 11.776 0 22.016-3.584 30.72-11.264 8.704-7.68 15.36-16.384 18.944-26.624h0.512c1.024-2.56 3.072-5.12 5.632-7.68 2.56-2.56 5.632-3.584 8.704-3.584 4.096 0 9.216 0.512 14.848 2.048 5.632 1.536 11.264 3.072 16.384 5.632 5.12 2.56 9.728 5.12 14.336 7.68 4.096 3.072 7.68 5.632 9.728 8.192 4.096 6.656 4.608 13.312 1.536 19.968-4.096 9.728-5.632 19.968-4.608 30.72 1.536 10.752 6.144 19.968 13.824 28.672 3.584 4.096 8.192 6.656 13.312 8.704 5.12 1.536 10.24 2.56 15.36 3.072 5.12 0.512 10.24 0.512 15.36-0.512s9.216-1.536 12.288-2.56c3.584-1.536 7.168-2.048 10.24-2.048 3.072 0 6.656 1.024 10.752 3.072 4.096 2.048 7.68 5.12 11.264 10.24 3.584 4.608 6.144 9.728 8.704 15.872 2.56 5.632 4.096 11.776 5.12 17.408 1.024 5.632 1.024 10.752 0.512 14.336-3.584 2.048-6.144 6.144-9.728 9.216z m-124.928 10.24c-5.632-13.312-13.312-24.576-23.552-34.816-9.728-10.24-21.504-17.92-34.816-23.552-13.312-5.632-27.648-8.704-42.496-8.704-14.848 0-29.184 3.072-42.496 8.704-13.312 5.632-24.576 13.312-34.816 23.552-9.728 10.24-17.408 21.504-23.552 34.816-5.632 13.312-8.704 27.136-8.704 42.496 0 14.848 3.072 29.184 8.704 42.496 5.632 13.312 13.312 24.576 23.552 34.816 9.728 9.728 21.504 17.408 34.816 23.552 13.312 5.632 27.136 8.704 42.496 8.704 14.848 0 29.184-3.072 42.496-8.704 13.312-5.632 25.088-13.312 34.816-23.552 9.728-9.728 17.408-21.504 23.552-34.816 5.632-13.312 8.704-27.136 8.704-42.496 0-15.36-3.072-29.184-8.704-42.496z"  horiz-adv-x="1025" />

    
    <glyph glyph-name="shouji" unicode="&#58920;" d="M900.096 110.592c-8.192 55.296-105.472 66.56-107.008 104.448-1.536 37.888 8.192 234.496 8.192 234.496 5.632 154.624-100.864 239.104-209.92 278.016v2.048 2.56c0 43.52-35.328 79.36-79.36 79.36S432.64 776.192 432.64 732.16v-4.608c-109.056-38.4-215.04-123.392-209.92-278.016 0 0 9.728-197.12 8.192-234.496-1.536-37.888-98.816-49.152-107.008-104.448-5.632-21.504 18.944-42.496 42.496-42.496h249.344c-0.512-4.096-1.024-8.704-1.024-13.312 0-53.76 43.52-97.28 97.28-97.28s97.28 43.52 97.28 97.28c0 4.608-0.512 8.704-1.024 13.312h249.344c23.04 0 47.616 20.992 42.496 42.496z"  horiz-adv-x="1024" />

    
    <glyph glyph-name="wenzhang" unicode="&#58880;" d="M1137.575865 896l0-795.939663-267.130435-228.060337-870.44543 0 0 1024 1137.575865 0zM795.939663 213.636202l-626.030169 0 0-113.575865 626.030169 0 0 113.575865zM966.757764 440.787933l-796.84827 0 0-113.575865 796.84827 0 0 113.575865zM966.757764 668.84827l-796.84827 0 0-114.484472 796.84827 0 0 114.484472z"  horiz-adv-x="1138" />

    
    <glyph glyph-name="52" unicode="&#59038;" d="M841.955556 389.006222l0-198.599111c-125.155556-19.342222-246.897778-77.368889-324.255289-154.737778C440.32 113.038222 329.955556 171.053511 193.422222 190.395733L193.422222 389.188267l324.448711-162.224356L841.955556 389.006222zM1000.129422 490.837333 517.870933 731.966578 35.612444 490.837333l482.258489-241.129244L1000.129422 490.837333z"  horiz-adv-x="1024" />

    
    <glyph glyph-name="icon-xiaoxi" unicode="&#58921;" d="M856.310302 214.952886c-90.533946 79.216179-90.191138 306.134329-90.174766 308.447001 0 170.742732-144.504138 228.595348-168.145581 236.911758-8.220219 40.839127-43.681872 70.152756-85.489047 70.152756-41.644469 0-77.083609-29.167297-85.444021-69.803809-167.228699-58.416458-168.999019-235.475036-168.999018-237.260705 0-238.499929-86.288249-307.189358-87.458911-308.099077-48.219211-42.617633-50.593282-101.626585-50.675146-104.123452l-0.010233-0.429789 0.061398-0.429788c12.611226-93.133144 82.901105-88.61013 88.292905-88.118944h216.343304c1.729387-46.975894 40.49325-84.660168 87.888699-84.660168 47.400566 0 86.160335 37.684274 87.889723 84.660168h214.699873c27.085892 0 48.680722 7.971555 64.181765 23.677259 25.029046 25.366737 24.834618 61.495586 24.813129 62.949704-0.001023 68.195172-46.045709 104.784508-47.774073 106.127086z m-61.331857-69.518307c4.52813-4.963035 15.889899-19.880793 15.650445-29.909193H215.415676c1.888 8.113795 6.583952 22.561855 17.011442 29.427216 1.151219 0.76748 115.715465 84.415598 121.32216 377.539612 0.210801 6.344498 6.958482 155.426909 158.448732 159.616324 0.053212 0.005117 0.599657 0.020466 1.571798 0.020467 14.871709 0 145.673777-4.451382 158.13253-158.106948-0.159636-10.788717-2.421142-265.532609 123.076107-378.587478z"  horiz-adv-x="1024" />

    
    <glyph glyph-name="bianji" unicode="&#58944;" d="M810.667 85.333c1.046 0 0-0.93 0-4.74v4.74z m0 0V371.537c0 23.564 19.102 42.667 42.666 42.667 23.564 0 42.667-19.103 42.667-42.667v-290.944C896 34.89 856.749 0 810.667 0H213.333C167.251 0 128 34.89 128 80.593V687.407C128 733.11 167.251 768 213.333 768h390.084c23.564 0 42.666-19.103 42.666-42.667s-19.102-42.666-42.666-42.666H213.333v-597.334h597.334z m-597.334 0v-4.74c0 3.81-1.046 4.74 0 4.74z m0 602.074v-4.74c-1.046 0 0 0.93 0 4.74zM542.17 311.163c-16.662-16.662-43.678-16.662-60.34 0-16.662 16.663-16.662 43.678 0 60.34l341.333 341.334c16.663 16.662 43.678 16.662 60.34 0 16.663-16.663 16.663-43.678 0-60.34L542.17 311.163z"  horiz-adv-x="1024" />

    
    <glyph glyph-name="xiangfa" unicode="&#58949;" d="M515-120c-277.2 0-502 224.8-502 502S237.8 884 515 884s502-224.8 502-502-224.8-502-502-502z m316.1 649.6c-32.6 38.5-76.5 57.8-131.5 57.8-83.8 0-143.1-46.8-177.9-140.4H520c-39.6 79.8-96.2 119.7-169.7 119.7-45.6 0-82.8-16.6-111.6-49.7-28.8-33.1-43.2-75.2-43.2-126.3 0-55.8 15.3-101.6 46-137.5 30.6-35.9 70.3-53.8 119.1-53.8 69.8 0 123.1 38.2 159.9 114.7h1.7c38.5-91.6 99.9-137.5 184.3-137.5 51.3 0 93.1 17.8 125.3 53.4 32.2 35.6 48.3 81.7 48.3 138.3 0 69-16.3 122.8-49 161.3zM702.2 258.2c-61.6 0-108.9 39.6-142 118.8 32.2 85.8 80.4 128.8 144.5 128.8 30.5 0 55.9-11.3 76.3-34 20.4-22.6 30.6-52 30.6-88.2 0-37.3-10.3-67.5-30.8-90.7-20.4-23.1-46.7-34.7-78.6-34.7z m-342.9 23.2c-27.6 0-50.4 10.1-68.2 30.2-17.8 20.1-26.7 44.6-26.7 73.3 0 30.6 8.5 54.9 25.7 72.9 17.1 17.9 40.5 26.9 70.1 26.9 54.2 0 95.9-34.2 125.3-102.7-28.8-67.1-70.9-100.6-126.2-100.6z"  horiz-adv-x="1024" />

    
    <glyph glyph-name="wode" unicode="&#59033;" d="M512 832.006249c54.794649 0 106.28962-21.29792 145.085831-60.094131s60.094131-90.291183 60.094132-145.085832c0-36.696416-9.499072-81.192071-26.597403-125.287764-17.798262-45.695538-42.995801-88.591349-71.093057-120.788205-19.398106-22.297822-26.197442-52.494874-18.198223-80.8921 7.999219-28.297237 29.59711-50.495069 57.694366-59.29421 71.892979-22.497803 144.885851-55.894542 200.180451-91.391075 27.097354-17.398301 49.395176-35.096573 64.493702-51.09501 11.498877-12.198809 16.598379-21.19793 18.298213-25.69749V-63.906259H82.041988V71.480519c1.599844 3.999609 6.199395 12.998731 19.098135 26.497413 15.298506 16.098428 37.796309 33.7967 64.793673 51.294991 55.2946 35.596524 127.887511 68.793282 199.280539 91.291084 28.097256 8.799141 49.595157 30.996973 57.594375 59.3942s1.199883 58.594278-18.198223 80.79211c-28.097256 32.196856-53.394786 75.092667-71.193047 120.788205-17.19832 44.195684-26.697393 88.691339-26.697393 125.387755 0 54.794649 21.29792 106.28962 60.094131 145.085831S457.205351 832.006249 512 832.006249m0 63.993751C363.41451 896 242.926277 775.511766 242.926277 626.926277c0-90.691143 44.895616-209.379553 113.588907-288.171858 10.898936-12.498779 5.499463-32.096866-10.298994-37.096378C195.330925 254.062689 33.546724 159.871888 18.448198 81.079582c-0.299971-1.299873-0.399961-2.699736-0.399961-4.0996v-181.982228c0-12.69876 10.298994-22.997754 22.997755-22.997754h941.908016c12.69876 0 22.997754 10.298994 22.997755 22.997754V77.279953c0 1.199883-0.09999 2.399766-0.299971 3.599649-13.298701 78.792305-176.082804 173.283078-327.668001 220.778439-15.898447 4.999512-21.29792 24.597598-10.398985 37.096378 68.693292 78.792305 113.488917 197.480715 113.488917 288.071867C781.073723 775.511766 660.58549 896 512 896z"  horiz-adv-x="1024" />

    
    <glyph glyph-name="bofangsanjiaoxing" unicode="&#59241;" d="M803.84 403.968 213.056 760.96C195.392 771.712 174.208 771.712 156.352 761.024 138.624 750.272 128 731.072 128 709.632l0-714.176c0-21.44 10.624-40.704 28.352-51.392C165.248-61.312 174.976-64 184.704-64c9.728 0 19.52 2.688 28.352 8.064l590.72 356.992c17.728 10.752 28.288 30.016 28.288 51.456C832.128 374.016 821.568 393.28 803.84 403.968zM189.568 4.288 187.136 702.208l578.624-349.696L189.568 4.288z"  horiz-adv-x="1024" />

    
    <glyph glyph-name="iconfontzhizuobiaozhun023101" unicode="&#58983;" d="M22.311657 475.475388c-10.023284-8.991792-17.588587-22.285562-17.588587-37.752836 0-27.185152 22.001083-49.212842 49.155537-49.212842l98.397031 0 0-467.197608c0-27.213805 22.00006-49.15656 49.155537-49.15656l163.104775 0c27.127847 0 49.15349 21.971407 49.15349 49.15656l0 196.72857 196.708104 0 0-196.72857c0-27.185152 21.912056-49.15656 49.127907-49.15656l163.073052 0c27.158547 0 49.157583 21.942755 49.157583 49.15656l0 467.197608 98.367355 0c27.211758 0 49.154513 22.026666 49.154513 49.212842 0 15.46625-7.504928 28.760021-18.822694 37.752836-168.776961 142.224212-488.427118 420.36907-488.427118 420.36907S192.293049 617.6996 22.311657 475.475388zM432.279842 831.850981"  horiz-adv-x="1024" />

    
    <glyph glyph-name="jiahao" unicode="&#58918;" d="M98 415.14h829.99v-63.79H98zM481.48 797.85h63.79V-31h-63.79z"  horiz-adv-x="1024" />

    
    <glyph glyph-name="bofangqi" unicode="&#58917;" d="M473.6 320c4.608-2.56 9.728-4.096 15.36-4.096s10.24 1.536 15.36 4.096l78.336 45.568c9.216 5.632 15.36 15.36 15.36 26.112 0 10.752-5.632 20.992-15.36 26.112l-78.336 45.568c-9.216 5.632-20.992 5.632-30.208 0-9.216-5.632-15.36-15.36-15.36-26.112v-90.624c0-10.752 5.632-20.992 14.848-26.624z m26.112 98.816l46.592-26.624-46.592-26.624v53.248zM819.712 783.872h-615.936c-44.544 0-80.384-36.352-80.384-80.384V87.03999999999996c0-44.544 36.352-80.384 80.384-80.384H819.712c44.544 0 80.384 36.352 80.384 80.384V702.976c0 44.544-36.352 80.896-80.384 80.896zM174.08 702.976c0 16.384 13.312 29.184 29.184 29.184H819.712c1.024 0 2.56 0 3.584-0.512H793.088l-79.36-79.36H655.36L735.232 732.16h-49.664l-79.36-79.36h-64.512l79.36 79.36h-49.664L491.52 652.8h-56.832l79.36 79.36h-49.664l-79.36-79.36h-55.808l79.36 79.36h-49.664l-79.36-79.36h-55.808l79.36 79.36h-49.664l-79.36-79.36v50.176zM848.896 87.03999999999996c0-16.384-13.312-29.184-29.184-29.184h-615.936c-16.384 0-29.184 13.312-29.184 29.184V611.8399999999999H848.896V87.03999999999996z m0 565.76H763.392l73.728 73.728c7.168-5.12 11.776-13.824 11.776-23.552v-50.176z"  horiz-adv-x="1024" />

    
    <glyph glyph-name="xuanxiang" unicode="&#59049;" d="M901.632 0H122.368c-30.72 0-55.808 25.088-55.808 55.808v1.536c0 30.72 25.088 55.808 55.808 55.808h779.776c30.72 0 55.808-25.088 55.808-55.808v-1.536c-0.512-30.72-25.6-55.808-56.32-55.808zM901.632 327.68H122.368c-30.72 0-55.808 25.088-55.808 55.808v1.536c0 30.72 25.088 55.808 55.808 55.808h779.776c30.72 0 55.808-25.088 55.808-55.808v-1.536c-0.512-30.72-25.6-55.808-56.32-55.808zM901.632 655.36H122.368c-30.72 0-55.808 25.088-55.808 55.808v1.536c0 30.72 25.088 55.808 55.808 55.808h779.776c30.72 0 55.808-25.088 55.808-55.808v-1.536c-0.512-30.72-25.6-55.808-56.32-55.808z"  horiz-adv-x="1024" />

    
    <glyph glyph-name="xiangji" unicode="&#58923;" d="M512.140705 516.765793c-82.390475 0-149.126412-66.734914-149.126412-149.127436s66.735937-149.127436 149.126412-149.127436c82.392522 0 149.128459 66.735937 149.128459 149.127436S594.532203 516.765793 512.140705 516.765793zM874.146529 591.330022 766.396479 591.330022c-14.907525 0-30.944779 28.708855-35.789111 42.87039l-32.057113 68.975954c-4.843308 14.161534-22.372543 37.282115-37.282115 37.282115L363.014292 740.458481c-14.908548 0-32.803103-23.119557-37.282115-37.282115l-27.578102-71.960938c-4.861728-13.780865-20.518313-39.885406-35.426861-39.885406L154.594449 591.330022c-49.185212 0-89.836051-14.909571-89.836051-64.496943l0-404.877237c0-49.223075 40.650839-89.855494 89.836051-89.855494l719.553103 0c49.589418 0 85.378529 40.632419 85.378529 89.855494L959.526081 526.833079C959.525058 576.420451 923.735947 591.330022 874.146529 591.330022zM512.140705 143.946692c-123.402541 0-223.689618 100.285031-223.689618 223.691665 0 123.404588 100.287077 223.691665 223.689618 223.691665 123.408681 0 223.692688-100.287077 223.692688-223.691665C735.83237 244.231723 635.548362 143.946692 512.140705 143.946692z"  horiz-adv-x="1024" />

    
    <glyph glyph-name="1" unicode="&#58897;" d="M936.741 433.586c-0.412 14.641-3.32 25.442-13.707 40.294-1.974 3.011-319.020 341.836-319.020 341.836-22.017 23.47-51.064 34.712-80.243 34.738l0 0.233c-0.419 0.026-0.938-0.131-1.457-0.131s-1.038 0.157-1.557 0.131v-0.233c-29.076-0.026-58.151-11.269-80.272-34.738 0 0-316.939-338.826-318.912-341.836-10.385-14.851-13.292-25.652-13.708-40.294 0 0 0-5.089 0-5.504 0-46.21 37.489-83.756 83.701-83.756h20.041v-300.375c0-48.912 43.925-88.529 98.033-88.529 54.105 0 97.927 39.616 97.927 88.529v300.376h229.368v-300.375c0-48.912 43.93-88.529 98.035-88.529s97.924 39.616 97.924 88.529v300.375h20.046c46.315 0 83.803 37.543 83.803 83.756 0 0.416-0.102 0.831-0.102 1.245l0.101 4.258zM811.918 736.379l0.521-0.65 63.036-66.618c8.93-9.397 23.679-9.814 33.023-0.933 0.103 0.051 0.103 0.156 0.314 0.259l0.828 0.779c2.803 2.906 4.467 5.502 5.506 10.489 0.207 0.934 0.31 1.974 0.411 2.959 0.208 1.091 0.414 2.128 0.52 3.428l7.273 123.63c0.519 9.009-2.805 17.030-8.306 22.95v0.052c-0.107 0.078-0.212 0.181-0.316 0.259-0.104 0.104-0.206 0.208-0.312 0.339v-0.026c-5.606 5.866-13.397 9.606-22.429 9.578l-123.89-0.311c-1.349-0.052-2.284-0.131-3.427-0.234-1.042-0.077-1.977-0.104-2.908-0.284-5.089-0.752-7.788-2.233-10.905-4.959l-0.832-0.832c0-0.051-0.208-0.129-0.208-0.181-9.341-8.906-9.762-23.652-0.936-33.050l63.038-66.643z"  horiz-adv-x="1024" />

    
    <glyph glyph-name="sousuo" unicode="&#58899;" d="M998.417847-72.923523 738.389131 183.032427c68.050929 73.967263 109.909294 171.800228 109.909294 279.479317 0 230.345352-189.746575 417.036095-423.778057 417.036095-234.030475 0-423.77705-186.690742-423.77705-417.036095 0-230.297023 189.746575-416.986758 423.77705-416.986758 101.131452 0 193.870691 34.971414 266.723355 93.126882l261.095991-256.924553c12.70864-12.514315 33.370499-12.514315 46.078132 0C1011.174816-105.759377 1011.174816-85.436831 998.417847-72.923523L998.417847-72.923523 998.417847-72.923523zM424.520368 109.645118c-198.040115 0-358.5393 157.977996-358.5393 352.86562 0 194.88863 160.499184 352.866627 358.5393 352.866627C622.562497 815.377365 783.110011 657.399368 783.110011 462.510738 783.110011 267.623114 622.562497 109.645118 424.520368 109.645118L424.520368 109.645118 424.520368 109.645118z"  horiz-adv-x="1024" />

    
    <glyph glyph-name="ai-out" unicode="&#58946;" d="M1014.641 410.665l-170.66 213.33c-8.264 10.322-20.603 16.015-33.321 16.015-4.721 0-9.492-0.788-14.121-2.417-17.101-5.99-28.539-22.129-28.539-40.253v-128h-341.33c-47.124 0-85.33-38.195-85.33-85.34 0-47.124 38.205-85.33 85.33-85.33h341.33v-127.99c0-18.125 11.438-34.273 28.539-40.274 4.628-1.618 9.4-2.406 14.121-2.406 12.718 0 25.057 5.704 33.321 16.015l170.66 213.34c12.483 15.585 12.483 37.724-0 53.309v0zM597.34 42.67l-341.34 0.010c-0.225 0-0.44-0.010-0.666-0.010-46.756 0-84.664 38.205-84.664 85.34l0 511.99h0.010c0 0.225-0.010 0.451-0.010 0.666 0 46.756 38.205 84.664 85.33 84.664h341.34c47.124 0 85.32 38.205 85.32 85.34s-38.195 85.33-85.32 85.33h-426.67c-94.259 0-170.67-76.411-170.67-170.67v-682.66c0-94.249 76.411-170.67 170.67-170.67h426.67c47.124 0 85.32 38.205 85.32 85.34s-38.195 85.33-85.32 85.33v0zM597.34 42.67z"  horiz-adv-x="1025" />

    
    <glyph glyph-name="option" unicode="&#58891;" d="M1163.636364 802.909091H46.545455a46.545455 46.545455 0 0 0 0 93.090909h1117.090909a46.545455 46.545455 0 0 0 0-93.090909zM1163.636364 337.45454500000005H46.545455a46.545455 46.545455 0 0 0 0 93.09091h1117.090909a46.545455 46.545455 0 0 0 0-93.09091zM1163.636364-128H46.545455a46.545455 46.545455 0 0 0 0 93.090909h1117.090909a46.545455 46.545455 0 0 0 0-93.090909z"  horiz-adv-x="1210" />

    
    <glyph glyph-name="wodedangxuan" unicode="&#58888;" d="M961.72259555-133.29749332999995H59.94723555c-18.64135111 0-37.28270222 9.32067555-48.93354666 23.30168888-11.65084445 16.31118222-16.31118222 34.95253333-11.65084444 53.59388445 46.60337778 237.67722667 240.00739555 414.77006222 473.02428444 433.41141333 78.06065778 0 162.52928-9.90321778 246.99790222-44.27320888 24.46677333-9.90321778 32.62236445-16.31118222 46.60337778-23.3016889 135.14979555-76.89557333 228.35655111-209.7152 258.64874666-365.83651555 4.66033778-18.64135111 0-37.28270222-13.98101333-53.59388445-11.65084445-13.98101333-30.29219555-23.30168889-48.93354667-23.30168888zM61.11232-95.43224888999998c-7.57304889 0-14.56355555 2.91271111-18.64135111 8.15559111-0.58254222 0.58254222-0.58254222 1.16508445-1.16508444 1.74762667-5.82542222 5.82542222-6.40796445 15.72864-5.24288 21.55406222 43.10812445 221.36604445 224.27875555 387.39057778 440.98446222 403.11921778h17.47626666c104.27505778 0 204.47232-32.62236445 253.40586667-63.49710222C876.08888889 198.75157333000004 961.72259555 78.16533332999995 988.51953778-63.974968890000014c1.16508445-8.15559111-0.58254222-15.72864-6.40796445-23.30168889-4.07779555-5.24288-11.06830222-8.15559111-18.64135111-8.15559111H61.11232zM494.52373333 325.16323554999997c101.36234667 0 198.64689778-31.45728 245.83281778-61.16693333h0.58254222c124.66403555-73.98286222 207.38503111-191.07384889 233.01688889-329.71889777 0.58254222-2.91271111 0.58254222-6.99050667-4.07779555-12.23338667-0.58254222-1.16508445-3.49525333-2.33016889-6.99050667-2.33016889H61.11232c-3.49525333 0-6.40796445 1.16508445-6.99050667 2.33016889-0.58254222 1.16508445-1.74762667 2.33016889-2.91271111 2.91271111-1.16508445 1.16508445-2.33016889 4.66033778-1.16508444 8.73813333 41.94304 214.95808 217.28824889 375.73973333 427.58599111 391.46837333 5.24288-0.58254222 11.06830222 0 16.89372444 0m0 29.12711112c-5.82542222 0-12.23338667 0-18.05880888-0.58254222C252.76871111 337.39662222000004 66.3552 167.29429332999996 22.08199111-61.06225777999998c-2.33016889-11.65084445 0-25.63185778 9.32067556-34.95253333 6.99050667-9.32067555 18.64135111-13.98101333 30.29219555-13.98101334H963.47022222c11.65084445 0 23.30168889 4.66033778 30.29219556 13.98101334 6.99050667 9.32067555 11.65084445 20.97152 9.32067555 34.95253333-27.96202667 149.13080889-116.50844445 271.46467555-246.99790222 349.52533333-49.51608889 30.87473778-150.87843555 65.82727111-261.56145778 65.82727112zM512 356.03797333c-146.80064 0-267.96942222 121.16878222-267.96942222 267.96942222S365.19936 891.97681778 512 891.97681778s267.96942222-121.16878222 267.96942222-267.96942223S658.80064 356.03797333 512 356.03797333zM512 393.90321778c-126.99420445 0-230.10417778 103.10997333-230.10417778 230.10417777S385.00579555 854.11157333 512 854.11157333s230.10417778-103.10997333 230.10417778-230.10417778-103.10997333-230.10417778-230.10417778-230.10417777zM512 839.54801778c118.83861333 0 215.54062222-96.70200889 215.54062222-215.54062223S630.83861333 408.46677333 512 408.46677333s-215.54062222 96.70200889-215.54062222 215.54062222 96.70200889 215.54062222 215.54062222 215.54062223m0 29.12711111c-135.14979555 0-244.66773333-109.51793778-244.66773333-244.66773334s109.51793778-244.66773333 244.66773333-244.66773333 244.66773333 109.51793778 244.66773333 244.66773333S647.14979555 868.67512889 512 868.67512889z"  horiz-adv-x="1024" />

    


  </font>
</defs>
</svg>
